<?xml version="1.0" standalone="no"?>
<!DOCTYPE svg PUBLIC "-//W3C//DTD SVG 20010904//EN"
 "http://www.w3.org/TR/2001/REC-SVG-20010904/DTD/svg10.dtd">
<svg version="1.0" xmlns="http://www.w3.org/2000/svg"
 width="256.000000pt" height="256.000000pt" viewBox="0 0 256.000000 256.000000"
 preserveAspectRatio="xMidYMid meet">

<g transform="translate(0.000000,256.000000) scale(0.100000,-0.100000)"
fill="#000000" stroke="none">
<path d="M1033 2435 c-31 -22 -38 -73 -20 -137 11 -35 14 -75 10 -118 l-5 -65
48 -63 c27 -35 56 -73 64 -85 l14 -22 -24 21 c-33 28 -103 74 -112 74 -16 0
-7 -77 12 -115 25 -49 25 -50 -2 -31 -12 9 -25 16 -28 16 -8 0 7 -160 21 -228
9 -44 19 -61 56 -95 45 -43 85 -102 98 -147 7 -23 5 -23 -31 11 -47 43 -111
92 -142 108 -22 12 -23 11 -13 -7 5 -10 38 -45 73 -77 76 -70 112 -117 44 -58
-60 53 -116 87 -116 70 0 -7 5 -30 10 -52 6 -22 14 -97 19 -166 10 -144 13
-151 107 -275 66 -86 67 -91 9 -48 -16 12 -50 32 -75 44 l-45 21 35 -27 c79
-63 169 -158 195 -205 17 -31 29 -72 32 -108 7 -78 -13 -281 -43 -430 -14 -68
-23 -126 -20 -128 8 -8 33 51 49 117 21 82 33 171 47 333 16 184 30 212 138
269 l37 19 -40 -5 -40 -5 81 79 c79 77 96 100 44 60 -37 -29 -42 -24 -15 16
13 19 29 61 35 92 6 31 17 86 24 122 l14 65 -66 -70 c-74 -79 -68 -56 8 31 63
72 74 106 65 200 l-7 73 -24 -27 -25 -27 22 43 c23 45 27 100 14 191 l-7 53
-45 -43 c-24 -24 -53 -59 -65 -77 -11 -18 -22 -31 -25 -28 -9 8 37 98 68 134
60 68 64 90 33 210 -15 59 -36 127 -46 152 -21 50 -97 181 -127 220 l-19 24
-9 -34 c-9 -35 -10 -34 -15 22 -4 32 -10 63 -13 69 -12 19 -108 59 -142 59
l-33 0 21 -52 c34 -86 33 -86 -15 -15 -26 37 -52 67 -59 67 -7 0 -22 -7 -34
-15z"/>
</g>
</svg>
